<svg width="32" height="28" viewBox="0 0 32 28" fill="none" xmlns="http://www.w3.org/2000/svg">
<path d="M22.6668 26V23.3333C22.6668 21.9188 22.1049 20.5623 21.1047 19.5621C20.1045 18.5619 18.748 18 17.3335 18H6.66683C5.25234 18 3.89579 18.5619 2.89559 19.5621C1.8954 20.5623 1.3335 21.9188 1.3335 23.3333V26M30.6668 26V23.3333C30.666 22.1516 30.2726 21.0037 29.5487 20.0698C28.8247 19.1358 27.811 18.4688 26.6668 18.1733M21.3335 2.17333C22.4807 2.46707 23.4975 3.13427 24.2237 4.06975C24.9498 5.00523 25.344 6.15577 25.344 7.34C25.344 8.52423 24.9498 9.67477 24.2237 10.6103C23.4975 11.5457 22.4807 12.2129 21.3335 12.5067M17.3335 7.33333C17.3335 10.2789 14.9457 12.6667 12.0002 12.6667C9.05464 12.6667 6.66683 10.2789 6.66683 7.33333C6.66683 4.38781 9.05464 2 12.0002 2C14.9457 2 17.3335 4.38781 17.3335 7.33333Z" stroke="#FAFAFA" stroke-width="3" stroke-linecap="round" stroke-linejoin="round"/>
</svg>
