<svg xmlns="http://www.w3.org/2000/svg" xmlns:xlink="http://www.w3.org/1999/xlink" width="1080" zoomAndPan="magnify" viewBox="0 0 810 809.999993" height="1080" preserveAspectRatio="xMidYMid meet" version="1.0"><defs><clipPath id="96ae94431b"><path d="M 313 112 L 730 112 L 730 452 L 313 452 Z M 313 112 " clip-rule="nonzero"/></clipPath><clipPath id="a93255810f"><path d="M 295.042969 138.359375 L 729.242188 112.015625 L 748.226562 424.941406 L 314.027344 451.28125 Z M 295.042969 138.359375 " clip-rule="nonzero"/></clipPath><clipPath id="828eae6a31"><path d="M 295.042969 138.359375 L 729.242188 112.015625 L 748.226562 424.941406 L 314.027344 451.28125 Z M 295.042969 138.359375 " clip-rule="nonzero"/></clipPath><clipPath id="e34fa2d9e8"><path d="M 295.042969 138.359375 L 729.242188 112.015625 L 748.226562 424.941406 L 314.027344 451.28125 Z M 295.042969 138.359375 " clip-rule="nonzero"/></clipPath><clipPath id="8e6e035836"><path d="M 28 448 L 306 448 L 306 713 L 28 713 Z M 28 448 " clip-rule="nonzero"/></clipPath><clipPath id="1bcada3cf4"><path d="M 13.492188 466.113281 L 305.457031 448.402344 L 320.441406 695.445312 L 28.480469 713.160156 Z M 13.492188 466.113281 " clip-rule="nonzero"/></clipPath><clipPath id="7aebaca7fb"><path d="M 13.492188 466.113281 L 305.457031 448.402344 L 320.441406 695.445312 L 28.480469 713.160156 Z M 13.492188 466.113281 " clip-rule="nonzero"/></clipPath><clipPath id="8438fba1e3"><path d="M 13.492188 466.113281 L 305.457031 448.402344 L 320.441406 695.445312 L 28.480469 713.160156 Z M 13.492188 466.113281 " clip-rule="nonzero"/></clipPath><clipPath id="21760e35bd"><path d="M 712 41 L 784 41 L 784 101 L 712 101 Z M 712 41 " clip-rule="nonzero"/></clipPath><clipPath id="96fc3bba49"><path d="M 709.992188 36.949219 L 796.832031 42.203125 L 792.167969 119.3125 L 705.328125 114.058594 Z M 709.992188 36.949219 " clip-rule="nonzero"/></clipPath><clipPath id="0ac99a6831"><path d="M 796.507812 42.183594 L 709.664062 36.929688 L 705 114.039062 L 791.84375 119.292969 Z M 796.507812 42.183594 " clip-rule="nonzero"/></clipPath><clipPath id="817f1ad62b"><path d="M 796.507812 42.183594 L 709.664062 36.929688 L 705 114.039062 L 791.84375 119.292969 Z M 796.507812 42.183594 " clip-rule="nonzero"/></clipPath><clipPath id="3be3dc15c3"><path d="M 761 41 L 785 41 L 785 78 L 761 78 Z M 761 41 " clip-rule="nonzero"/></clipPath><clipPath id="72b0548e18"><path d="M 709.992188 36.949219 L 796.832031 42.203125 L 792.167969 119.3125 L 705.328125 114.058594 Z M 709.992188 36.949219 " clip-rule="nonzero"/></clipPath><clipPath id="d13ea0d617"><path d="M 796.507812 42.183594 L 709.664062 36.929688 L 705 114.039062 L 791.84375 119.292969 Z M 796.507812 42.183594 " clip-rule="nonzero"/></clipPath><clipPath id="8b3acc3f56"><path d="M 796.507812 42.183594 L 709.664062 36.929688 L 705 114.039062 L 791.84375 119.292969 Z M 796.507812 42.183594 " clip-rule="nonzero"/></clipPath><clipPath id="91fa14eb54"><path d="M 708 44 L 780 44 L 780 114 L 708 114 Z M 708 44 " clip-rule="nonzero"/></clipPath><clipPath id="23528d3a78"><path d="M 709.992188 36.949219 L 796.832031 42.203125 L 792.167969 119.3125 L 705.328125 114.058594 Z M 709.992188 36.949219 " clip-rule="nonzero"/></clipPath><clipPath id="d97fe64368"><path d="M 796.507812 42.183594 L 709.664062 36.929688 L 705 114.039062 L 791.84375 119.292969 Z M 796.507812 42.183594 " clip-rule="nonzero"/></clipPath><clipPath id="a327d7f34e"><path d="M 796.507812 42.183594 L 709.664062 36.929688 L 705 114.039062 L 791.84375 119.292969 Z M 796.507812 42.183594 " clip-rule="nonzero"/></clipPath><clipPath id="910ddfc37e"><path d="M 757 78 L 785 78 L 785 111 L 757 111 Z M 757 78 " clip-rule="nonzero"/></clipPath><clipPath id="1789aaccb9"><path d="M 709.992188 36.949219 L 796.832031 42.203125 L 792.167969 119.3125 L 705.328125 114.058594 Z M 709.992188 36.949219 " clip-rule="nonzero"/></clipPath><clipPath id="dfa1b3eee4"><path d="M 796.507812 42.183594 L 709.664062 36.929688 L 705 114.039062 L 791.84375 119.292969 Z M 796.507812 42.183594 " clip-rule="nonzero"/></clipPath><clipPath id="7644d803ae"><path d="M 796.507812 42.183594 L 709.664062 36.929688 L 705 114.039062 L 791.84375 119.292969 Z M 796.507812 42.183594 " clip-rule="nonzero"/></clipPath><clipPath id="2088e6e215"><path d="M 782 71 L 791 71 L 791 79 L 782 79 Z M 782 71 " clip-rule="nonzero"/></clipPath><clipPath id="5fe7105684"><path d="M 709.992188 36.949219 L 796.832031 42.203125 L 792.167969 119.3125 L 705.328125 114.058594 Z M 709.992188 36.949219 " clip-rule="nonzero"/></clipPath><clipPath id="ea62feb2ab"><path d="M 796.507812 42.183594 L 709.664062 36.929688 L 705 114.039062 L 791.84375 119.292969 Z M 796.507812 42.183594 " clip-rule="nonzero"/></clipPath><clipPath id="64cfbbbb86"><path d="M 796.507812 42.183594 L 709.664062 36.929688 L 705 114.039062 L 791.84375 119.292969 Z M 796.507812 42.183594 " clip-rule="nonzero"/></clipPath><clipPath id="445318f28a"><path d="M 781 74 L 793 74 L 793 79 L 781 79 Z M 781 74 " clip-rule="nonzero"/></clipPath><clipPath id="ad4a5e0a65"><path d="M 709.992188 36.949219 L 796.832031 42.203125 L 792.167969 119.3125 L 705.328125 114.058594 Z M 709.992188 36.949219 " clip-rule="nonzero"/></clipPath><clipPath id="683083d6ba"><path d="M 796.507812 42.183594 L 709.664062 36.929688 L 705 114.039062 L 791.84375 119.292969 Z M 796.507812 42.183594 " clip-rule="nonzero"/></clipPath><clipPath id="e4c6d29962"><path d="M 796.507812 42.183594 L 709.664062 36.929688 L 705 114.039062 L 791.84375 119.292969 Z M 796.507812 42.183594 " clip-rule="nonzero"/></clipPath><clipPath id="5ca2bd802b"><path d="M 788 69 L 793 69 L 793 74 L 788 74 Z M 788 69 " clip-rule="nonzero"/></clipPath><clipPath id="4ff592e25b"><path d="M 709.992188 36.949219 L 796.832031 42.203125 L 792.167969 119.3125 L 705.328125 114.058594 Z M 709.992188 36.949219 " clip-rule="nonzero"/></clipPath><clipPath id="5000884fdc"><path d="M 796.507812 42.183594 L 709.664062 36.929688 L 705 114.039062 L 791.84375 119.292969 Z M 796.507812 42.183594 " clip-rule="nonzero"/></clipPath><clipPath id="bc287d4314"><path d="M 796.507812 42.183594 L 709.664062 36.929688 L 705 114.039062 L 791.84375 119.292969 Z M 796.507812 42.183594 " clip-rule="nonzero"/></clipPath><clipPath id="9cbc4748f3"><path d="M 790 75 L 795 75 L 795 79 L 790 79 Z M 790 75 " clip-rule="nonzero"/></clipPath><clipPath id="316ac58321"><path d="M 709.992188 36.949219 L 796.832031 42.203125 L 792.167969 119.3125 L 705.328125 114.058594 Z M 709.992188 36.949219 " clip-rule="nonzero"/></clipPath><clipPath id="77bdc0ff8a"><path d="M 796.507812 42.183594 L 709.664062 36.929688 L 705 114.039062 L 791.84375 119.292969 Z M 796.507812 42.183594 " clip-rule="nonzero"/></clipPath><clipPath id="f13ea98a76"><path d="M 796.507812 42.183594 L 709.664062 36.929688 L 705 114.039062 L 791.84375 119.292969 Z M 796.507812 42.183594 " clip-rule="nonzero"/></clipPath><clipPath id="0f32493774"><path d="M 714 46 L 781 46 L 781 112 L 714 112 Z M 714 46 " clip-rule="nonzero"/></clipPath><clipPath id="7697cb4780"><path d="M 709.992188 36.949219 L 796.832031 42.203125 L 792.167969 119.3125 L 705.328125 114.058594 Z M 709.992188 36.949219 " clip-rule="nonzero"/></clipPath><clipPath id="64c55a3590"><path d="M 796.507812 42.183594 L 709.664062 36.929688 L 705 114.039062 L 791.84375 119.292969 Z M 796.507812 42.183594 " clip-rule="nonzero"/></clipPath><clipPath id="1d78679e42"><path d="M 796.507812 42.183594 L 709.664062 36.929688 L 705 114.039062 L 791.84375 119.292969 Z M 796.507812 42.183594 " clip-rule="nonzero"/></clipPath><clipPath id="5cb43d6fbe"><path d="M 754 53 L 776 53 L 776 87 L 754 87 Z M 754 53 " clip-rule="nonzero"/></clipPath><clipPath id="fdb5bf2dc7"><path d="M 709.992188 36.949219 L 796.832031 42.203125 L 792.167969 119.3125 L 705.328125 114.058594 Z M 709.992188 36.949219 " clip-rule="nonzero"/></clipPath><clipPath id="5a0b2c2e68"><path d="M 796.507812 42.183594 L 709.664062 36.929688 L 705 114.039062 L 791.84375 119.292969 Z M 796.507812 42.183594 " clip-rule="nonzero"/></clipPath><clipPath id="791cdf2f6b"><path d="M 796.507812 42.183594 L 709.664062 36.929688 L 705 114.039062 L 791.84375 119.292969 Z M 796.507812 42.183594 " clip-rule="nonzero"/></clipPath><clipPath id="4900c65a2a"><path d="M 726 82 L 756 82 L 756 97 L 726 97 Z M 726 82 " clip-rule="nonzero"/></clipPath><clipPath id="13fb7f323f"><path d="M 709.992188 36.949219 L 796.832031 42.203125 L 792.167969 119.3125 L 705.328125 114.058594 Z M 709.992188 36.949219 " clip-rule="nonzero"/></clipPath><clipPath id="31197f8fd3"><path d="M 796.507812 42.183594 L 709.664062 36.929688 L 705 114.039062 L 791.84375 119.292969 Z M 796.507812 42.183594 " clip-rule="nonzero"/></clipPath><clipPath id="c7f358e194"><path d="M 796.507812 42.183594 L 709.664062 36.929688 L 705 114.039062 L 791.84375 119.292969 Z M 796.507812 42.183594 " clip-rule="nonzero"/></clipPath></defs><g clip-path="url(#96ae94431b)"><g clip-path="url(#a93255810f)"><g clip-path="url(#828eae6a31)"><g clip-path="url(#e34fa2d9e8)"><path fill="#010101" d="M 351.59375 441.910156 L 352.394531 445.011719 L 345.0625 446.773438 L 337.625 448.1875 L 337.078125 444.980469 L 344.34375 443.574219 Z M 470.902344 341.746094 C 470.316406 346.507812 468.9375 351.234375 467.203125 355.808594 L 470.253906 357.023438 C 472.152344 352.265625 473.511719 347.277344 474.164062 342.160156 Z M 412.097656 415.203125 C 411.085938 415.878906 410.082031 416.640625 408.980469 417.230469 L 402.648438 421.03125 L 404.304688 423.820312 L 410.808594 419.925781 C 411.910156 419.332031 412.914062 418.570312 414.007812 417.890625 L 417.117188 415.773438 L 415.292969 413.082031 Z M 391.894531 426.9375 L 385.089844 430.15625 C 383.984375 430.660156 382.882812 431.253906 381.683594 431.675781 L 383 434.660156 C 384.203125 434.238281 385.304688 433.644531 386.410156 433.140625 L 389.8125 431.53125 L 393.214844 429.925781 C 394.316406 429.332031 395.417969 428.738281 396.519531 428.148438 L 395.03125 425.261719 C 394.097656 425.753906 392.996094 426.347656 391.894531 426.9375 Z M 455.546875 375.695312 L 458.121094 377.726562 C 461.289062 373.683594 464.097656 369.484375 466.445312 364.960938 L 463.554688 363.472656 C 461.277344 367.726562 458.636719 371.828125 455.546875 375.695312 Z M 459.09375 388.003906 C 457.863281 387.902344 456.632812 387.804688 455.484375 387.609375 C 454.246094 387.421875 453.101562 387.316406 451.855469 386.953125 L 451.175781 390.148438 C 452.417969 390.421875 453.738281 390.605469 454.976562 390.792969 C 456.214844 390.980469 457.53125 391.078125 458.761719 391.175781 C 460.082031 391.273438 461.304688 391.285156 462.625 391.382812 C 463.9375 391.390625 465.164062 391.402344 466.472656 391.324219 L 466.363281 388.089844 C 465.140625 388.164062 463.914062 388.148438 462.691406 388.136719 C 461.550781 388.117188 460.320312 388.015625 459.09375 388.003906 Z M 427.933594 403.644531 L 426.519531 404.871094 C 426.015625 405.25 425.515625 405.632812 425.011719 406.011719 L 422.089844 408.292969 L 423.996094 410.890625 L 427.007812 408.605469 C 427.507812 408.226562 428.011719 407.84375 428.511719 407.464844 L 429.925781 406.238281 L 435.667969 401.335938 L 433.507812 398.929688 Z M 452.574219 384.371094 L 450.171875 382.238281 C 448.625 384.171875 446.808594 385.945312 445.164062 387.710938 C 443.433594 389.480469 441.796875 391.332031 439.972656 393.019531 L 442.214844 395.335938 C 444.125 393.640625 445.761719 391.789062 447.488281 389.933594 C 449.125 388.082031 450.941406 386.308594 452.574219 384.371094 Z M 412.914062 353.671875 C 411.667969 349.015625 411.285156 344.132812 411.695312 339.378906 L 408.4375 339.050781 C 407.964844 344.25 408.371094 349.480469 409.722656 354.476562 Z M 462.875 311.839844 C 458.65625 308.679688 453.550781 306.710938 448.34375 305.976562 L 447.835938 309.160156 C 452.515625 309.839844 457.082031 311.578125 460.84375 314.414062 Z M 439.691406 309.042969 L 439.320312 305.824219 C 434.101562 306.316406 429.042969 308.023438 424.488281 310.839844 L 426.226562 313.539062 C 430.363281 311.007812 434.996094 309.503906 439.691406 309.042969 Z M 474.234375 333.222656 C 473.742188 327.996094 472.027344 322.84375 469.136719 318.464844 L 466.449219 320.292969 C 469.050781 324.253906 470.640625 328.796875 471.019531 333.59375 Z M 412.941406 362.777344 C 415.324219 367.449219 418.464844 371.636719 422.179688 375.179688 L 424.402344 372.855469 C 420.957031 369.472656 418.007812 365.535156 415.824219 361.289062 Z M 313.902344 448.050781 L 314.097656 451.277344 C 319.144531 450.796875 324.113281 450.496094 329.136719 449.664062 L 328.679688 446.453125 C 323.832031 447.273438 318.863281 447.574219 313.902344 448.050781 Z M 442.71875 387.773438 L 443.757812 384.730469 C 439.203125 383.167969 434.777344 380.894531 430.761719 378.160156 L 428.910156 380.8125 C 433.285156 383.703125 437.894531 386.136719 442.71875 387.773438 Z M 420.160156 318.808594 L 417.757812 316.679688 C 414.320312 320.652344 411.808594 325.359375 410.273438 330.359375 L 413.394531 331.308594 C 414.773438 326.667969 417.054688 322.414062 420.160156 318.808594 Z M 366.894531 437.390625 C 365.695312 437.8125 364.582031 438.230469 363.375 438.566406 L 359.855469 439.65625 L 360.832031 442.75 L 364.4375 441.65625 C 365.644531 441.320312 366.835938 440.808594 368.035156 440.386719 C 370.4375 439.539062 372.835938 438.691406 375.144531 437.851562 L 374 434.855469 C 371.601562 435.703125 369.203125 436.546875 366.894531 437.390625 Z M 659.539062 146.898438 C 657.628906 148.59375 655.902344 150.449219 654.171875 152.21875 L 656.496094 154.441406 C 658.226562 152.671875 659.949219 150.816406 661.777344 149.214844 C 663.601562 147.527344 665.332031 145.761719 667.253906 144.242188 L 665.09375 141.832031 C 663.179688 143.4375 661.359375 145.210938 659.539062 146.898438 Z M 629.753906 183.828125 L 625.859375 190.28125 L 628.671875 191.949219 L 632.574219 185.582031 C 633.933594 183.488281 635.292969 181.390625 636.652344 179.292969 L 634.003906 177.4375 C 632.476562 179.632812 631.113281 181.730469 629.753906 183.828125 Z M 638.832031 170.488281 L 641.402344 172.4375 C 644.3125 168.492188 647.484375 164.535156 650.671875 160.835938 L 648.265625 158.707031 C 644.996094 162.496094 641.824219 166.453125 638.832031 170.488281 Z M 617.964844 204.425781 C 616.792969 206.683594 615.609375 208.859375 614.523438 211.113281 L 617.414062 212.601562 C 618.5 210.347656 619.679688 208.175781 620.855469 205.914062 C 622.039062 203.738281 623.21875 201.566406 624.394531 199.304688 L 621.585938 197.722656 C 620.324219 199.988281 619.148438 202.25 617.964844 204.425781 Z M 604.449219 232.570312 L 607.417969 233.878906 C 609.5 229.285156 611.589844 224.78125 613.679688 220.273438 L 610.792969 218.871094 C 608.53125 223.390625 606.445312 227.984375 604.449219 232.570312 Z M 729.082031 112.027344 L 721.535156 113.097656 C 719.035156 113.6875 716.527344 114.1875 714.113281 114.773438 L 714.914062 117.878906 C 717.328125 117.292969 719.75 116.796875 722.074219 116.21875 L 729.363281 115.164062 Z M 691.890625 123.480469 L 693.378906 126.367188 C 697.789062 124.085938 702.3125 122.144531 706.933594 120.464844 L 705.871094 117.375 C 701.078125 119.15625 696.390625 121.191406 691.890625 123.480469 Z M 681.070312 129.742188 C 679.976562 130.421875 678.972656 131.183594 677.960938 131.855469 L 674.859375 134.058594 C 673.855469 134.820312 672.851562 135.582031 671.847656 136.34375 L 673.84375 138.9375 C 674.847656 138.175781 675.761719 137.417969 676.765625 136.65625 L 679.789062 134.546875 C 680.796875 133.875 681.800781 133.113281 682.8125 132.4375 L 685.929688 130.496094 L 684.273438 127.707031 Z M 554.570312 330.539062 C 553.117188 332.550781 551.664062 334.566406 550.117188 336.5 L 552.6875 338.445312 C 554.230469 336.515625 555.679688 334.410156 557.21875 332.390625 C 558.671875 330.375 560.117188 328.273438 561.480469 326.175781 L 558.746094 324.414062 C 557.382812 326.425781 556.023438 328.523438 554.570312 330.539062 Z M 474.714844 387.320312 L 475.171875 390.53125 C 480.203125 389.789062 485.199219 388.523438 489.996094 386.832031 L 488.933594 383.742188 C 484.394531 385.332031 479.570312 386.585938 474.714844 387.320312 Z M 594.816406 254.085938 L 597.785156 255.394531 L 603.863281 241.628906 L 600.894531 240.320312 Z M 539.917969 348.679688 C 538.195312 350.535156 536.550781 352.300781 534.734375 354.074219 L 536.976562 356.390625 C 538.792969 354.617188 540.515625 352.761719 542.242188 350.902344 C 543.96875 349.046875 545.597656 347.109375 547.238281 345.257812 L 544.746094 343.132812 C 543.195312 344.976562 541.648438 346.910156 539.917969 348.679688 Z M 496.890625 380.71875 L 498.207031 383.703125 C 502.808594 381.671875 507.390625 379.292969 511.601562 376.585938 L 509.945312 373.796875 C 505.726562 376.417969 501.402344 378.695312 496.890625 380.71875 Z M 525.785156 362.324219 L 522.867188 364.691406 C 521.863281 365.453125 520.953125 366.296875 519.941406 366.972656 L 516.925781 369.167969 L 518.832031 371.769531 L 521.9375 369.566406 C 522.941406 368.804688 523.941406 367.953125 524.941406 367.191406 L 527.863281 364.828125 C 528.859375 363.976562 529.773438 363.132812 530.683594 362.289062 L 528.523438 359.882812 C 527.609375 360.636719 526.695312 361.480469 525.785156 362.324219 Z M 567.285156 310.847656 L 563.472656 317.210938 L 566.199219 318.882812 L 570.09375 312.429688 L 573.8125 305.898438 L 571.003906 304.316406 Z M 585.277344 275.6875 L 588.246094 276.996094 C 590.328125 272.402344 592.417969 267.894531 594.414062 263.308594 L 591.449219 262 C 589.363281 266.59375 587.363281 271.09375 585.277344 275.6875 Z M 578.367188 290.117188 C 577.277344 292.375 576.097656 294.546875 575.007812 296.804688 L 577.898438 298.292969 C 579.074219 296.03125 580.167969 293.863281 581.34375 291.601562 C 582.433594 289.347656 583.605469 287.085938 584.609375 284.835938 L 581.722656 283.433594 C 580.546875 285.695312 579.453125 287.863281 578.367188 290.117188 Z M 578.367188 290.117188 " fill-opacity="1" fill-rule="nonzero"/></g></g></g></g><g clip-path="url(#8e6e035836)"><g clip-path="url(#1bcada3cf4)"><g clip-path="url(#7aebaca7fb)"><g clip-path="url(#8438fba1e3)"><path fill="#010101" d="M 305.640625 451.46875 L 298.023438 452.691406 C 295.464844 453.082031 292.902344 453.472656 290.410156 454.03125 L 289.882812 451.132812 C 292.433594 450.570312 294.996094 450.238281 297.613281 449.785156 L 305.226562 448.503906 Z M 273.472656 454.589844 L 269.65625 455.527344 L 267.746094 455.996094 L 265.839844 456.519531 L 266.601562 459.40625 L 268.449219 458.882812 L 270.359375 458.414062 L 274.121094 457.484375 C 276.609375 456.921875 279.152344 456.242188 281.648438 455.738281 L 281.003906 452.84375 C 278.507812 453.347656 275.964844 454.03125 273.472656 454.589844 Z M 255.386719 459.441406 L 253.542969 460.023438 L 249.800781 461.246094 C 247.324219 462.042969 244.847656 462.835938 242.375 463.691406 L 243.367188 466.503906 C 245.78125 465.652344 248.261719 464.914062 250.734375 464.0625 L 254.417969 462.84375 L 256.261719 462.261719 L 258.109375 461.738281 L 257.234375 458.917969 Z M 226.761719 469.679688 L 219.542969 472.636719 L 220.707031 475.382812 L 227.871094 472.425781 C 230.277344 471.460938 232.625 470.4375 235.097656 469.585938 L 234.050781 466.832031 C 231.574219 467.6875 229.171875 468.710938 226.761719 469.679688 Z M 207.890625 478.035156 L 204.414062 479.769531 L 197.464844 483.300781 L 198.855469 485.914062 L 205.75 482.445312 L 209.226562 480.710938 L 212.769531 479.089844 L 211.492188 476.410156 Z M 176.128906 495.558594 L 177.691406 498.101562 C 182.109375 495.429688 186.460938 492.644531 191.015625 490.257812 L 189.566406 487.648438 C 184.953125 490.039062 180.605469 492.882812 176.128906 495.558594 Z M 165.394531 502.542969 L 163.757812 503.636719 L 162.183594 504.789062 L 155.820312 509.339844 L 157.613281 511.75 L 163.914062 507.207031 L 165.488281 506.054688 L 167.125 504.957031 L 170.34375 502.828125 L 168.722656 500.347656 Z M 142.585938 519.582031 L 136.605469 524.632812 L 138.5625 526.859375 L 144.484375 521.871094 C 146.5 520.222656 148.519531 518.691406 150.597656 517.101562 L 148.75 514.75 C 146.675781 516.34375 144.59375 517.875 142.585938 519.582031 Z M 124.128906 535.769531 L 118.589844 541.265625 L 120.714844 543.363281 L 126.199219 537.929688 L 131.929688 532.714844 L 129.914062 530.492188 Z M 107.050781 553.398438 C 105.289062 555.324219 103.652344 557.355469 101.945312 559.277344 L 104.175781 561.195312 C 105.882812 559.273438 107.519531 557.238281 109.226562 555.375 L 114.523438 549.71875 L 112.34375 547.683594 Z M 91.339844 572.234375 L 90.140625 573.773438 L 89.003906 575.367188 L 86.671875 578.496094 L 89.066406 580.230469 L 91.34375 577.101562 L 92.480469 575.566406 L 93.679688 574.027344 L 98.480469 567.988281 L 96.195312 566.132812 Z M 72.925781 598.796875 L 75.429688 600.347656 C 78.09375 595.902344 81.070312 591.734375 83.921875 587.402344 L 81.472656 585.730469 C 78.621094 590.066406 75.59375 594.355469 72.925781 598.796875 Z M 64.40625 613.210938 L 62.496094 616.609375 L 60.710938 620.058594 L 63.316406 621.425781 L 65.105469 617.976562 L 67.015625 614.632812 L 70.835938 607.894531 L 68.277344 606.40625 Z M 53.28125 635.050781 C 52.191406 637.402344 51.039062 639.761719 50.070312 642.164062 L 52.785156 643.347656 C 53.753906 640.945312 54.847656 638.648438 56 636.292969 L 59.273438 629.292969 L 56.609375 627.988281 Z M 43.789062 657.671875 L 41.121094 664.988281 L 43.941406 665.988281 L 46.613281 658.734375 C 47.523438 656.332031 48.433594 653.871094 49.40625 651.527344 L 46.636719 650.40625 C 45.609375 652.8125 44.699219 655.273438 43.789062 657.671875 Z M 37.101562 677.132812 L 36.035156 680.890625 C 35.308594 683.398438 34.515625 685.851562 33.90625 688.410156 L 36.773438 689.171875 C 37.445312 686.667969 38.175781 684.222656 38.90625 681.714844 L 39.972656 678.015625 L 41.097656 674.3125 L 38.285156 673.425781 Z M 30.023438 704.710938 L 28.433594 712.371094 L 31.339844 712.898438 L 32.878906 705.296875 C 33.429688 702.800781 33.863281 700.253906 34.535156 697.75 L 31.613281 697.050781 C 31.003906 699.609375 30.515625 702.160156 30.023438 704.710938 Z M 30.023438 704.710938 " fill-opacity="1" fill-rule="nonzero"/></g></g></g></g><g clip-path="url(#21760e35bd)"><g clip-path="url(#96fc3bba49)"><g clip-path="url(#0ac99a6831)"><g clip-path="url(#817f1ad62b)"><path fill="#b065b9" d="M 761.757812 43.550781 C 757.976562 46.050781 756.027344 50.816406 755.101562 55.105469 C 753.523438 62.433594 752.90625 70.5 755.222656 77.742188 C 746.511719 68.308594 735.015625 58 721.042969 59.933594 C 716.039062 60.625 711.347656 63.902344 712.585938 69.453125 C 713.929688 75.480469 720.375 79.71875 725.484375 82.386719 C 728.945312 84.195312 732.609375 85.589844 736.335938 86.753906 C 739.605469 87.773438 742.757812 89.175781 746.195312 89.527344 C 743.050781 89.558594 729.046875 88.523438 730.050781 94.15625 C 730.972656 99.355469 739.792969 99.457031 743.621094 100.058594 C 750.03125 101.058594 753.214844 97.839844 758.457031 94.703125 C 763.132812 91.902344 767.808594 89.09375 772.484375 86.289062 C 773.601562 85.621094 774.714844 84.953125 775.828125 84.28125 C 777.65625 83.1875 779.339844 78.644531 780.210938 76.804688 C 781.699219 73.660156 782.824219 70.34375 783.414062 66.914062 C 784.605469 59.933594 783.355469 53.1875 778.59375 47.695312 C 775.125 43.691406 769.542969 40.550781 764.140625 42.382812 C 763.273438 42.675781 762.480469 43.074219 761.757812 43.550781 " fill-opacity="1" fill-rule="nonzero"/></g></g></g></g><g clip-path="url(#3be3dc15c3)"><g clip-path="url(#72b0548e18)"><g clip-path="url(#d13ea0d617)"><g clip-path="url(#8b3acc3f56)"><path fill="#231f20" d="M 779.710938 76.574219 C 781.183594 73.464844 782.292969 70.195312 782.867188 66.820312 C 783.050781 65.765625 783.171875 64.71875 783.234375 63.679688 C 783.40625 60.824219 783.121094 58.046875 782.304688 55.421875 C 781.488281 52.796875 780.140625 50.320312 778.175781 48.050781 C 776.898438 46.570312 775.316406 45.214844 773.578125 44.203125 C 771.835938 43.191406 769.9375 42.527344 768.007812 42.414062 C 766.785156 42.339844 765.550781 42.484375 764.320312 42.898438 C 763.5 43.175781 762.75 43.550781 762.0625 44.007812 C 761.808594 44.175781 761.464844 44.105469 761.296875 43.855469 C 761.128906 43.601562 761.195312 43.261719 761.449219 43.097656 C 762.214844 42.589844 763.050781 42.171875 763.960938 41.863281 C 765.332031 41.398438 766.71875 41.238281 768.074219 41.320312 C 770.214844 41.449219 772.273438 42.179688 774.132812 43.261719 C 775.992188 44.339844 777.660156 45.773438 779.011719 47.335938 C 781.074219 49.71875 782.5 52.335938 783.359375 55.101562 C 784.21875 57.867188 784.515625 60.777344 784.335938 63.746094 C 784.269531 64.824219 784.144531 65.914062 783.957031 67.003906 C 783.359375 70.492188 782.21875 73.855469 780.710938 77.039062 C 780.582031 77.3125 780.253906 77.429688 779.976562 77.300781 C 779.699219 77.171875 779.582031 76.847656 779.710938 76.574219 " fill-opacity="1" fill-rule="nonzero"/></g></g></g></g><g clip-path="url(#91fa14eb54)"><g clip-path="url(#23528d3a78)"><g clip-path="url(#d97fe64368)"><g clip-path="url(#a327d7f34e)"><path fill="#f682bc" d="M 748.496094 48.945312 C 745.730469 52.886719 745.671875 58.363281 746.441406 62.96875 C 747.753906 70.84375 750.304688 79.078125 755.441406 85.359375 C 743.109375 79.375 727.679688 73.601562 714.597656 80.914062 C 709.914062 83.535156 706.554688 88.597656 709.957031 93.617188 C 713.65625 99.074219 721.699219 100.785156 727.808594 101.457031 C 731.945312 101.914062 736.125 101.878906 740.273438 101.59375 C 743.910156 101.339844 747.585938 101.511719 751.125 100.53125 C 748.023438 101.78125 733.75 106.160156 736.953125 111.359375 C 739.90625 116.152344 748.683594 112.847656 752.707031 111.964844 C 759.453125 110.480469 763.15625 105.726562 767.117188 100.59375 C 770.652344 96.011719 772.363281 91.75 775.894531 87.164062 C 776.738281 86.070312 777.578125 84.976562 778.421875 83.882812 C 779.800781 82.089844 779.6875 76.9375 779.828125 74.777344 C 780.066406 71.085938 779.882812 67.363281 779.113281 63.734375 C 777.554688 56.351562 773.671875 50.152344 766.800781 46.546875 C 761.792969 43.917969 755.03125 42.964844 750.398438 46.867188 C 749.65625 47.492188 749.027344 48.191406 748.496094 48.945312 " fill-opacity="1" fill-rule="nonzero"/></g></g></g></g><g clip-path="url(#910ddfc37e)"><g clip-path="url(#1789aaccb9)"><g clip-path="url(#dfa1b3eee4)"><g clip-path="url(#7644d803ae)"><path fill="#231f20" d="M 778.351562 80.097656 C 778.351562 80.097656 778.171875 80.65625 777.851562 81.640625 C 777.769531 81.882812 777.683594 82.15625 777.585938 82.449219 C 777.484375 82.703125 777.375 82.972656 777.253906 83.265625 C 777.136719 83.558594 777.011719 83.871094 776.878906 84.199219 C 776.847656 84.285156 776.816406 84.367188 776.78125 84.453125 C 776.742188 84.539062 776.695312 84.628906 776.65625 84.714844 C 776.566406 84.894531 776.480469 85.078125 776.386719 85.265625 C 776.207031 85.640625 776.015625 86.03125 775.820312 86.433594 C 775.625 86.839844 775.378906 87.242188 775.144531 87.664062 C 774.90625 88.085938 774.679688 88.527344 774.40625 88.964844 C 774.136719 89.398438 773.855469 89.84375 773.574219 90.292969 C 773.429688 90.519531 773.292969 90.753906 773.140625 90.976562 C 772.984375 91.203125 772.828125 91.429688 772.671875 91.65625 C 772.359375 92.113281 772.039062 92.578125 771.71875 93.042969 C 771.035156 93.953125 770.367188 94.902344 769.636719 95.808594 C 769.273438 96.261719 768.921875 96.726562 768.550781 97.175781 C 768.179688 97.625 767.8125 98.074219 767.445312 98.519531 C 766.707031 99.402344 765.960938 100.265625 765.238281 101.097656 C 763.785156 102.757812 762.398438 104.292969 761.210938 105.617188 C 760.621094 106.28125 760.078125 106.890625 759.601562 107.429688 C 759.128906 107.976562 758.714844 108.453125 758.375 108.84375 C 757.71875 109.644531 757.34375 110.101562 757.34375 110.101562 C 757.34375 110.101562 757.785156 109.710938 758.5625 109.023438 C 758.957031 108.691406 759.4375 108.289062 759.992188 107.824219 C 760.550781 107.371094 761.179688 106.855469 761.867188 106.296875 C 763.246094 105.179688 764.867188 103.882812 766.582031 102.457031 C 767.4375 101.742188 768.324219 101 769.210938 100.226562 C 769.652344 99.839844 770.101562 99.445312 770.546875 99.054688 C 770.996094 98.65625 771.429688 98.246094 771.875 97.839844 C 772.769531 97.035156 773.613281 96.171875 774.472656 95.34375 C 774.886719 94.917969 775.292969 94.484375 775.699219 94.0625 C 775.902344 93.847656 776.105469 93.636719 776.304688 93.429688 C 776.503906 93.214844 776.6875 92.996094 776.878906 92.78125 C 777.257812 92.347656 777.632812 91.921875 777.996094 91.503906 C 778.359375 91.085938 778.6875 90.648438 779.019531 90.234375 C 779.347656 89.816406 779.683594 89.417969 779.976562 89.007812 C 780.265625 88.59375 780.546875 88.195312 780.816406 87.8125 C 780.953125 87.617188 781.085938 87.429688 781.214844 87.246094 C 781.277344 87.152344 781.34375 87.0625 781.40625 86.96875 C 781.464844 86.871094 781.523438 86.773438 781.582031 86.675781 C 781.816406 86.289062 782.039062 85.921875 782.246094 85.574219 C 782.453125 85.226562 782.644531 84.898438 782.824219 84.597656 C 782.96875 84.320312 783.097656 84.066406 783.21875 83.835938 C 783.691406 82.917969 783.960938 82.390625 783.960938 82.390625 C 784.722656 80.90625 784.128906 79.089844 782.632812 78.332031 C 781.132812 77.574219 779.300781 78.160156 778.539062 79.644531 C 778.46875 79.785156 778.40625 79.929688 778.359375 80.074219 L 778.351562 80.097656 " fill-opacity="1" fill-rule="nonzero"/></g></g></g></g><g clip-path="url(#2088e6e215)"><g clip-path="url(#5fe7105684)"><g clip-path="url(#ea62feb2ab)"><g clip-path="url(#64cfbbbb86)"><path fill="#231f20" d="M 782.125 78.433594 C 782.378906 74.285156 785.964844 71.132812 790.148438 71.382812 C 790.375 71.398438 790.550781 71.59375 790.535156 71.820312 C 790.523438 72.042969 790.328125 72.214844 790.097656 72.203125 C 788.234375 72.089844 786.503906 72.734375 785.210938 73.871094 C 783.917969 75.007812 783.0625 76.632812 782.953125 78.484375 C 782.9375 78.710938 782.742188 78.882812 782.515625 78.867188 C 782.285156 78.855469 782.113281 78.660156 782.125 78.433594 " fill-opacity="1" fill-rule="nonzero"/></g></g></g></g><g clip-path="url(#445318f28a)"><g clip-path="url(#ad4a5e0a65)"><g clip-path="url(#683083d6ba)"><g clip-path="url(#e4c6d29962)"><path fill="#231f20" d="M 782.078125 77.792969 C 783.671875 75.722656 786.132812 74.703125 788.5625 74.851562 C 790.015625 74.9375 791.460938 75.441406 792.703125 76.382812 C 792.886719 76.523438 792.921875 76.78125 792.78125 76.960938 C 792.644531 77.140625 792.382812 77.175781 792.203125 77.035156 C 791.09375 76.195312 789.808594 75.746094 788.515625 75.667969 C 786.34375 75.539062 784.15625 76.445312 782.738281 78.289062 C 782.597656 78.46875 782.339844 78.503906 782.15625 78.367188 C 781.976562 78.230469 781.941406 77.972656 782.078125 77.792969 " fill-opacity="1" fill-rule="nonzero"/></g></g></g></g><g clip-path="url(#5ca2bd802b)"><g clip-path="url(#4ff592e25b)"><g clip-path="url(#5000884fdc)"><g clip-path="url(#bc287d4314)"><path fill="#231f20" d="M 788.90625 71.070312 C 788.839844 72.132812 789.65625 73.042969 790.726562 73.109375 C 791.796875 73.171875 792.714844 72.367188 792.78125 71.304688 C 792.84375 70.242188 792.03125 69.328125 790.960938 69.265625 C 789.890625 69.199219 788.96875 70.007812 788.90625 71.070312 " fill-opacity="1" fill-rule="nonzero"/></g></g></g></g><g clip-path="url(#9cbc4748f3)"><g clip-path="url(#316ac58321)"><g clip-path="url(#77bdc0ff8a)"><g clip-path="url(#f13ea98a76)"><path fill="#231f20" d="M 790.492188 76.953125 C 790.429688 78.015625 791.246094 78.929688 792.316406 78.992188 C 793.386719 79.058594 794.304688 78.25 794.371094 77.1875 C 794.433594 76.125 793.617188 75.214844 792.546875 75.148438 C 791.476562 75.085938 790.558594 75.890625 790.492188 76.953125 " fill-opacity="1" fill-rule="nonzero"/></g></g></g></g><g clip-path="url(#0f32493774)"><g clip-path="url(#7697cb4780)"><g clip-path="url(#64c55a3590)"><g clip-path="url(#1d78679e42)"><path fill="#231f20" d="M 779.660156 76.769531 C 779.664062 76.738281 779.664062 76.710938 779.667969 76.679688 C 779.765625 75.042969 779.675781 73.011719 779.472656 70.992188 C 779.269531 68.96875 778.953125 66.953125 778.609375 65.335938 C 777.910156 62.027344 776.695312 58.996094 774.894531 56.394531 C 773.09375 53.796875 770.707031 51.621094 767.652344 50.015625 C 765.5625 48.921875 763.128906 48.15625 760.734375 48.011719 C 759.386719 47.929688 758.050781 48.042969 756.792969 48.398438 C 755.53125 48.757812 754.351562 49.351562 753.292969 50.242188 C 752.652344 50.78125 752.109375 51.382812 751.652344 52.039062 C 750.296875 53.96875 749.675781 56.363281 749.527344 58.839844 C 749.410156 60.726562 749.570312 62.652344 749.867188 64.4375 C 751.054688 71.578125 753.371094 79.003906 757.96875 84.621094 C 758.128906 84.820312 758.132812 85.109375 757.972656 85.308594 C 757.808594 85.507812 757.527344 85.570312 757.296875 85.457031 C 750.398438 82.105469 742.453125 78.851562 734.675781 78.382812 C 729.808594 78.089844 725.015625 78.875 720.523438 81.386719 C 719.113281 82.175781 717.839844 83.21875 716.910156 84.410156 C 715.980469 85.601562 715.394531 86.925781 715.3125 88.300781 C 715.238281 89.550781 715.566406 90.855469 716.476562 92.199219 C 717.273438 93.378906 718.3125 94.363281 719.515625 95.1875 C 721.320312 96.421875 723.5 97.296875 725.746094 97.914062 C 727.988281 98.527344 730.300781 98.890625 732.375 99.117188 C 733.199219 99.207031 734.023438 99.277344 734.847656 99.328125 C 737.773438 99.503906 740.71875 99.441406 743.65625 99.238281 C 745.335938 99.121094 747.007812 99.105469 748.644531 99.003906 C 750.285156 98.902344 751.890625 98.722656 753.453125 98.289062 C 753.734375 98.210938 754.027344 98.363281 754.121094 98.640625 C 754.214844 98.914062 754.078125 99.214844 753.808594 99.324219 C 753.152344 99.585938 752.027344 99.976562 750.679688 100.488281 C 748.667969 101.253906 746.175781 102.28125 744.195312 103.472656 C 743.207031 104.070312 742.351562 104.707031 741.753906 105.34375 C 741.453125 105.664062 741.21875 105.984375 741.058594 106.292969 C 740.894531 106.605469 740.808594 106.902344 740.789062 107.195312 C 740.769531 107.582031 740.859375 107.972656 741.132812 108.414062 C 741.558594 109.105469 742.117188 109.574219 742.800781 109.898438 C 743.480469 110.226562 744.292969 110.398438 745.183594 110.453125 C 746.78125 110.550781 748.625 110.257812 750.355469 109.863281 C 752.089844 109.472656 753.710938 108.984375 754.925781 108.71875 C 755.222656 108.652344 755.515625 108.839844 755.582031 109.132812 C 755.648438 109.429688 755.460938 109.722656 755.164062 109.785156 C 754.019531 110.039062 752.378906 110.527344 750.601562 110.929688 C 748.824219 111.332031 746.898438 111.648438 745.117188 111.542969 C 744.125 111.484375 743.175781 111.289062 742.324219 110.886719 C 741.472656 110.484375 740.726562 109.859375 740.191406 108.984375 C 739.816406 108.382812 739.652344 107.746094 739.691406 107.128906 C 739.726562 106.503906 739.964844 105.917969 740.320312 105.378906 C 740.949219 104.4375 741.945312 103.613281 743.113281 102.859375 C 744.867188 101.726562 747.023438 100.761719 748.957031 99.984375 C 749.921875 99.597656 750.828125 99.261719 751.597656 98.976562 C 752.363281 98.695312 752.996094 98.46875 753.394531 98.308594 L 753.601562 98.816406 L 753.75 99.34375 C 752.078125 99.804688 750.390625 99.992188 748.714844 100.09375 C 747.039062 100.199219 745.371094 100.214844 743.734375 100.328125 C 740.761719 100.535156 737.769531 100.601562 734.78125 100.417969 C 733.9375 100.367188 733.097656 100.296875 732.253906 100.203125 C 729.441406 99.894531 726.171875 99.347656 723.148438 98.234375 C 721.636719 97.675781 720.1875 96.976562 718.890625 96.085938 C 717.59375 95.199219 716.449219 94.121094 715.5625 92.808594 C 714.53125 91.292969 714.121094 89.726562 714.214844 88.234375 C 714.3125 86.59375 715.003906 85.0625 716.039062 83.738281 C 717.074219 82.414062 718.457031 81.285156 719.984375 80.433594 C 724.683594 77.804688 729.714844 76.988281 734.742188 77.292969 C 742.78125 77.78125 750.832031 81.105469 757.78125 84.476562 L 757.539062 84.96875 L 757.109375 85.3125 C 752.332031 79.460938 749.988281 71.855469 748.777344 64.613281 C 748.472656 62.765625 748.304688 60.761719 748.425781 58.773438 C 748.582031 56.164062 749.234375 53.566406 750.746094 51.410156 C 751.257812 50.683594 751.863281 50.011719 752.578125 49.410156 C 753.761719 48.410156 755.09375 47.742188 756.488281 47.347656 C 757.886719 46.953125 759.347656 46.832031 760.800781 46.917969 C 763.382812 47.074219 765.953125 47.890625 768.164062 49.050781 C 771.378906 50.734375 773.90625 53.039062 775.800781 55.777344 C 777.699219 58.515625 778.964844 61.683594 779.691406 65.113281 C 780.042969 66.777344 780.359375 68.824219 780.570312 70.882812 C 780.777344 72.945312 780.871094 75.019531 780.765625 76.746094 C 780.765625 76.777344 780.761719 76.8125 780.761719 76.84375 C 780.742188 77.144531 780.476562 77.371094 780.175781 77.351562 C 779.871094 77.332031 779.640625 77.070312 779.660156 76.769531 " fill-opacity="1" fill-rule="nonzero"/></g></g></g></g><g clip-path="url(#5cb43d6fbe)"><g clip-path="url(#fdb5bf2dc7)"><g clip-path="url(#5a0b2c2e68)"><g clip-path="url(#791cdf2f6b)"><path fill="#f4d280" d="M 755.617188 70.714844 C 759.210938 79.859375 769.394531 87.992188 772.289062 86.875 C 775.183594 85.757812 777 69.972656 773.410156 60.832031 C 769.816406 51.6875 762.171875 52.648438 759.277344 53.765625 C 756.382812 54.882812 752.027344 61.570312 755.617188 70.714844 " fill-opacity="1" fill-rule="nonzero"/></g></g></g></g><g clip-path="url(#4900c65a2a)"><g clip-path="url(#13fb7f323f)"><g clip-path="url(#31197f8fd3)"><g clip-path="url(#c7f358e194)"><path fill="#f4d280" d="M 738.074219 96.324219 C 746.167969 96.359375 755.457031 91.941406 755.464844 89.8125 C 755.472656 87.683594 743.898438 82.515625 735.804688 82.480469 C 727.710938 82.441406 726.164062 87.558594 726.15625 89.683594 C 726.148438 91.8125 729.980469 96.289062 738.074219 96.324219 " fill-opacity="1" fill-rule="nonzero"/></g></g></g></g></svg>