<svg width="2999" height="519" viewBox="0 0 2999 519" fill="none" xmlns="http://www.w3.org/2000/svg">
<g clip-path="url(#clip0_178_36)">
<path d="M-2200 181.186C-1942.62 159.702 -1863.81 318.811 -1606.43 339.61C-1349.06 360.408 -1068.38 250.28 -811 244.001C-553.625 237.721 -612.375 279.262 -355 272.501C-97.625 265.739 332 142.501 595.5 142.5C859 142.499 1430.5 314.001 1693.5 314.001C1956.5 314.001 2303.62 211.708 2561 213.371C2818.38 215.034 3096.12 281.558 3353.5 279.5C3647.3 279.5 3749.4 187.799 3977 149V473C3719.62 473 3462.25 473 3204.88 473C2947.5 473 2690.13 473 2432.75 473C2175.38 473 1918 473 1660.62 473C1403.25 473 1145.88 473 888.5 473C631.125 473 373.75 473 116.375 473C-141 473 -398.375 473 -655.75 473C-913.125 473 -1170.5 473 -1427.88 473C-1685.25 473 -1942.62 473 -2200 473V181.186Z" fill="#FF3EA5" fill-opacity="0.3"/>
<path d="M-6806 181.384C-6393.79 159.768 -6378.67 288.473 -5966.46 309.4C-5554.26 330.327 -5202.54 203.895 -4790.33 197.576C-4378.12 191.258 -3978.46 333.551 -3566.25 326.748C-3154.05 319.944 -2553.59 180.778 -2141.38 197.576C-1729.18 214.374 -1309.25 387.496 -897.037 360.572C-484.829 333.648 143.62 174.304 555.829 175.977C968.037 177.65 1498.02 328.818 1910.23 326.748C2380.77 326.748 2722.49 188.039 3087 149V475C2674.79 475 2262.58 475 1850.38 475C1438.17 475 1025.96 475 613.751 475C201.542 475 -210.666 475 -622.875 475C-1035.08 475 -1447.29 475 -1859.5 475C-2271.71 475 -2683.92 475 -3096.12 475C-3508.33 475 -3920.54 475 -4332.75 475C-4744.96 475 -5157.17 475 -5569.38 475C-5981.58 475 -6393.79 475 -6806 475V181.384Z" fill="#FF3EA5" fill-opacity="0.5"/>
<path d="M-4186 217.696C-3763.12 192.849 -3747.61 304.588 -3324.74 328.643C-2901.86 352.698 -2196.53 199.317 -1773.66 192.054C-1350.78 184.79 -970.092 362.539 -547.217 354.719C-124.342 346.898 465.625 195.682 888.5 214.991C1311.38 234.301 1833.47 385.668 2256.34 354.719C2679.22 323.77 3002.88 213.068 3425.75 214.991C3848.63 216.914 4271.5 331.029 4694.38 328.649C5177.09 328.649 5589.05 204.875 5963 160V519C5540.12 519 5117.25 519 4694.38 519C4271.5 519 3848.63 519 3425.75 519C3002.88 519 2580 519 2157.12 519C1734.25 519 1311.38 519 888.5 519C465.625 519 42.7505 519 -380.125 519C-803 519 -1225.88 519 -1648.75 519C-2071.62 519 -2494.5 519 -2917.38 519C-3340.25 519 -3763.12 519 -4186 519V217.696Z" fill="#FF3EA5"/>
</g>
<defs>
<clipPath id="clip0_178_36">
<rect width="2999" height="519" fill="white"/>
</clipPath>
</defs>
</svg>
