<svg width="2999" height="519" viewBox="0 0 2999 519" fill="none" xmlns="http://www.w3.org/2000/svg">
<g clip-path="url(#clip0_123_5829)">
<path d="M-1293 233.027C-1060.5 215.654 -989.3 344.316 -756.8 361.135C-524.3 377.953 -79.385 287.844 153.115 282.766C385.615 277.688 644.349 366.602 876.85 361.135C1109.35 355.667 1338.97 245.553 1571.47 259.053C1803.97 272.553 2085.05 382.773 2317.55 361.135C2550.05 339.496 2864.98 257.708 3097.48 259.053C3329.98 260.398 3443.83 337.574 3676.33 335.911C3941.73 335.911 4081.4 238.375 4287 207V469C4054.5 469 3822 469 3589.5 469C3357 469 3124.5 469 2892 469C2659.5 469 2427 469 2194.5 469C1962 469 1729.5 469 1497 469C1264.5 469 1032 469 799.5 469C567 469 334.5 469 102 469C-130.5 469 -363 469 -595.5 469C-828 469 -1060.5 469 -1293 469V233.027Z" fill="#FAFAFA" fill-opacity="0.3"/>
<path d="M-1160 220.629C-946.5 203.522 -938.669 305.381 -725.169 321.942C-511.669 338.504 -472 238.444 -258.5 233.444C-45 228.443 164 341.056 377.5 335.672C591 330.287 908 207.335 1121.5 220.629C1335 233.923 1632.5 391.438 1846 370.13C2059.5 348.822 2357 219.305 2570.5 220.629C2784 221.953 3141 337.31 3354.5 335.672C3598.21 335.672 3775.2 225.896 3964 195V453C3750.5 453 3537 453 3323.5 453C3110 453 2896.5 453 2683 453C2469.5 453 2256 453 2042.5 453C1829 453 1615.5 453 1402 453C1188.5 453 975 453 761.5 453C548 453 334.5 453 121 453C-92.5 453 -306 453 -519.5 453C-733 453 -946.5 453 -1160 453V220.629Z" fill="#FAFAFA" fill-opacity="0.5"/>
<path d="M-209 244.664C15.2917 225.676 239.583 375.079 463.875 393.462C688.167 411.844 912.458 274.709 1136.75 269.158C1361.04 263.608 1585.33 399.438 1809.63 393.462C2033.92 387.486 2258.21 254.403 2482.5 269.158C2706.79 283.914 2931.08 397.19 3155.38 373.54C3379.67 349.89 3603.96 243.194 3828.25 244.664C4052.54 246.134 4276.83 375.359 4501.13 373.54C4757.16 373.54 4975.66 278.956 5174 244.664V519C4949.71 519 4725.42 519 4501.13 519C4276.83 519 4052.54 519 3828.25 519C3603.96 519 3379.67 519 3155.38 519C2931.08 519 2706.79 519 2482.5 519C2258.21 519 2033.92 519 1809.63 519C1585.33 519 1361.04 519 1136.75 519C912.458 519 688.167 519 463.875 519C239.583 519 15.2917 519 -209 519V244.664Z" fill="#FAFAFA"/>
</g>
<defs>
<clipPath id="clip0_123_5829">
<rect width="2999" height="519" fill="white"/>
</clipPath>
</defs>
</svg>
