<svg width="2999" height="519" viewBox="0 0 2999 519" fill="none" xmlns="http://www.w3.org/2000/svg">
<path d="M-651.5 60.9999C-479.792 30.9632 -427.208 253.421 -255.5 282.5C-83.7917 311.579 244.792 155.78 416.5 147C588.208 138.22 779.292 291.953 951 282.5C1122.71 273.046 1292.29 82.6577 1464 106C1635.71 129.342 1843.29 319.913 2015 282.5C2186.71 245.087 2419.29 103.675 2591 106C2762.71 108.325 2846.79 241.764 3018.5 238.887C3214.51 238.887 3317.66 70.2469 3469.5 15.9999V469C3297.79 469 3126.08 469 2954.38 469C2782.67 469 2610.96 469 2439.25 469C2267.54 469 2095.83 469 1924.12 469C1752.42 469 1580.71 469 1409 469C1237.29 469 1065.58 469 893.875 469C722.167 469 550.458 469 378.75 469C207.042 469 35.3333 469 -136.375 469C-308.083 469 -479.792 469 -651.5 469V60.9999Z" fill="#FAFAFA" fill-opacity="0.3"/>
<path d="M-954 44.9998C-782.292 14.9631 -775.994 193.808 -604.285 222.887C-432.577 251.966 -77.2083 98.7799 94.5 89.9997C266.208 81.2196 392.792 275.953 564.5 266.5C736.208 257.046 867.292 44.1578 1039 67.4998C1210.71 90.8419 1386.79 335.413 1558.5 298C1730.21 260.587 1983.29 -2.32505 2155 -0.000177754C2326.71 2.32469 2544.29 225.764 2716 222.887C2912.01 222.887 3015.16 54.2469 3167 -0.000177755V453C2995.29 453 2823.58 453 2651.88 453C2480.17 453 2308.46 453 2136.75 453C1965.04 453 1793.33 453 1621.62 453C1449.92 453 1278.21 453 1106.5 453C934.792 453 763.083 453 591.375 453C419.667 453 247.958 453 76.25 453C-95.4583 453 -267.167 453 -438.875 453C-610.583 453 -782.292 453 -954 453V44.9998Z" fill="#FAFAFA" fill-opacity="0.5"/>
<path d="M-1027 154.77C-855.292 124.733 -848.994 259.808 -677.285 288.887C-505.577 317.967 -168.458 132.552 3.25 123.772C174.958 114.991 346.667 329.863 518.375 320.409C690.083 310.956 861.792 100.43 1033.5 123.772C1205.21 147.114 1376.92 326.308 1548.62 288.895C1720.33 251.482 1892.04 82.6989 2063.75 85.0238C2235.46 87.3487 2407.17 291.771 2578.88 288.895C2774.88 288.895 2942.16 139.271 3094 85.0238V519C2922.29 519 2750.58 519 2578.88 519C2407.17 519 2235.46 519 2063.75 519C1892.04 519 1720.33 519 1548.62 519C1376.92 519 1205.21 519 1033.5 519C861.792 519 690.083 519 518.375 519C346.667 519 174.958 519 3.25 519C-168.458 519 -340.167 519 -511.875 519C-683.583 519 -855.292 519 -1027 519V154.77Z" fill="#FAFAFA"/>
</svg>
