<svg width="2999" height="519" viewBox="0 0 2999 519" fill="none" xmlns="http://www.w3.org/2000/svg">
<g clip-path="url(#clip0_123_5831)">
<path d="M-2200 181.185C-1967.5 159.702 -1896.3 318.811 -1663.8 339.609C-1431.3 360.408 -986.385 248.975 -753.885 242.695C-521.385 236.416 -262.65 346.371 -30.1504 339.609C202.35 332.848 425.5 196.676 658 213.371C890.5 230.066 999.5 391.044 1232 364.285C1464.5 337.526 1957.98 211.708 2190.48 213.371C2422.98 215.034 2503 315.561 2735.5 313.503C3000.9 313.503 3174.4 187.799 3380 149V473C3147.5 473 2915 473 2682.5 473C2450 473 2217.5 473 1985 473C1752.5 473 1520 473 1287.5 473C1055 473 822.5 473 590 473C357.5 473 125 473 -107.5 473C-340 473 -572.5 473 -805 473C-1037.5 473 -1270 473 -1502.5 473C-1735 473 -1967.5 473 -2200 473V181.185Z" fill="#FF3EA5" fill-opacity="0.3"/>
<path d="M-2037 181.384C-1823.5 159.768 -1815.67 288.473 -1602.17 309.4C-1388.67 330.327 -1206.5 203.895 -993 197.576C-779.5 191.258 -572.5 333.551 -359 326.748C-145.5 319.944 165.5 180.778 379 197.576C592.5 214.374 810 387.496 1023.5 360.572C1237 333.648 1562.5 174.304 1776 175.977C1989.5 177.65 2264 328.818 2477.5 326.748C2721.21 326.748 2898.2 188.039 3087 149V475C2873.5 475 2660 475 2446.5 475C2233 475 2019.5 475 1806 475C1592.5 475 1379 475 1165.5 475C952 475 738.5 475 525 475C311.5 475 98.0002 475 -115.5 475C-329 475 -542.5 475 -756 475C-969.5 475 -1183 475 -1396.5 475C-1610 475 -1823.5 475 -2037 475V181.384Z" fill="#FF3EA5" fill-opacity="0.5"/>
<path d="M-1086 217.696C-861.708 192.849 -853.482 304.588 -629.19 328.643C-404.898 352.698 -30.7916 199.317 193.5 192.054C417.792 184.79 619.708 362.539 844 354.719C1068.29 346.898 1381.21 195.682 1605.5 214.991C1829.79 234.301 2106.71 385.668 2331 354.719C2555.29 323.77 2726.96 213.068 2951.25 214.991C3175.54 216.914 3399.83 331.029 3624.13 328.649C3880.16 328.649 4098.66 204.875 4297 160V519C4072.71 519 3848.42 519 3624.13 519C3399.83 519 3175.54 519 2951.25 519C2726.96 519 2502.67 519 2278.38 519C2054.08 519 1829.79 519 1605.5 519C1381.21 519 1156.92 519 932.625 519C708.334 519 484.042 519 259.75 519C35.4584 519 -188.833 519 -413.125 519C-637.417 519 -861.708 519 -1086 519V217.696Z" fill="#FF3EA5"/>
</g>
<defs>
<clipPath id="clip0_123_5831">
<rect width="2999" height="519" fill="white"/>
</clipPath>
</defs>
</svg>
