<svg width="2999" height="580" viewBox="0 0 2999 580" fill="none" xmlns="http://www.w3.org/2000/svg">
<g clip-path="url(#clip0_123_5827)">
<path d="M-2111 225.576C-1878.5 203.165 -1807.3 369.148 -1574.8 390.846C-1342.3 412.543 -897.385 296.295 -664.885 289.744C-432.385 283.193 -173.651 397.899 58.8496 390.846C291.35 383.792 520.972 241.736 753.472 259.152C985.972 276.569 1267.05 418.761 1499.55 390.846C1732.05 362.93 2046.98 257.418 2279.48 259.152C2511.98 260.887 2625.83 360.451 2858.33 358.304C3123.73 358.304 3263.4 232.476 3469 192V530C3236.5 530 3004 530 2771.5 530C2539 530 2306.5 530 2074 530C1841.5 530 1609 530 1376.5 530C1144 530 911.5 530 679 530C446.5 530 214 530 -18.4998 530C-251 530 -483.5 530 -716 530C-948.5 530 -1181 530 -1413.5 530C-1646 530 -1878.5 530 -2111 530V225.576Z" fill="#FF3EA5" fill-opacity="0.3"/>
<path d="M-1978 278.027C-1764.5 260.654 -1756.67 364.092 -1543.17 380.911C-1329.67 397.729 -887.808 309.131 -674.308 304.053C-460.808 298.975 -303.416 411.602 -89.916 406.135C123.584 400.667 286.572 277.539 500.072 291.04C713.572 304.54 869 443.675 1082.5 422.037C1296 400.398 1621.5 272.336 1835 273.681C2048.5 275.025 2323 396.516 2536.5 394.852C2780.21 394.852 2957.2 283.375 3146 252V514C2932.5 514 2719 514 2505.5 514C2292 514 2078.5 514 1865 514C1651.5 514 1438 514 1224.5 514C1011 514 797.5 514 584 514C370.5 514 157 514 -56.4998 514C-270 514 -483.5 514 -697 514C-910.5 514 -1124 514 -1337.5 514C-1551 514 -1764.5 514 -1978 514V278.027Z" fill="#FF3EA5" fill-opacity="0.5"/>
<path d="M-1027 324.032C-802.708 302.923 -794.482 397.849 -570.19 418.285C-345.898 438.721 94.4584 308.418 318.75 302.247C543.042 296.077 767.334 447.081 991.625 440.437C1215.92 433.794 1440.21 285.843 1664.5 302.247C1888.79 318.651 2113.08 444.583 2337.38 418.29C2561.67 391.997 2785.96 300.613 3010.25 302.247C3234.54 303.881 3458.83 420.312 3683.13 418.29C3939.16 418.29 4157.66 313.14 4356 275.017V580C4131.71 580 3907.42 580 3683.13 580C3458.83 580 3234.54 580 3010.25 580C2785.96 580 2561.67 580 2337.38 580C2113.08 580 1888.79 580 1664.5 580C1440.21 580 1215.92 580 991.625 580C767.334 580 543.042 580 318.75 580C94.4584 580 -129.833 580 -354.125 580C-578.417 580 -802.708 580 -1027 580V324.032Z" fill="#FF3EA5"/>
</g>
<defs>
<clipPath id="clip0_123_5827">
<rect width="2999" height="580" fill="white"/>
</clipPath>
</defs>
</svg>
